<mxfile host="app.diagrams.net" modified="2022-06-16T02:32:28.662Z" agent="5.0 (Windows NT 10.0; Win64; x64) AppleWebKit/537.36 (KHTML, like Gecko) Chrome/102.0.0.0 Safari/537.36" etag="sd8sUD1rk14Sfi2S4HzN" version="20.0.1" type="github">
  <diagram id="C5RBs43oDa-KdzZeNtuy" name="Page-1">
    <mxGraphModel dx="1662" dy="762" grid="1" gridSize="10" guides="1" tooltips="1" connect="1" arrows="1" fold="1" page="1" pageScale="1" pageWidth="827" pageHeight="1169" math="0" shadow="0">
      <root>
        <mxCell id="WIyWlLk6GJQsqaUBKTNV-0" />
        <mxCell id="WIyWlLk6GJQsqaUBKTNV-1" parent="WIyWlLk6GJQsqaUBKTNV-0" />
        <mxCell id="WIyWlLk6GJQsqaUBKTNV-6" value="매핑" style="rhombus;whiteSpace=wrap;html=1;shadow=0;fontFamily=Helvetica;fontSize=12;align=center;strokeWidth=1;spacing=6;spacingTop=-4;" parent="WIyWlLk6GJQsqaUBKTNV-1" vertex="1">
          <mxGeometry x="300" y="240" width="100" height="80" as="geometry" />
        </mxCell>
        <mxCell id="4q6ymWTk0w80l1iQ2Jg6-3" value="N" style="text;html=1;strokeColor=none;fillColor=none;align=center;verticalAlign=middle;whiteSpace=wrap;rounded=0;" parent="WIyWlLk6GJQsqaUBKTNV-1" vertex="1">
          <mxGeometry x="250" y="250" width="50" height="20" as="geometry" />
        </mxCell>
        <mxCell id="4q6ymWTk0w80l1iQ2Jg6-6" value="채널" style="rounded=0;whiteSpace=wrap;html=1;" parent="WIyWlLk6GJQsqaUBKTNV-1" vertex="1">
          <mxGeometry x="104" y="250" width="120" height="60" as="geometry" />
        </mxCell>
        <mxCell id="b1o6msCtsk1UACjhmxPi-0" value="" style="endArrow=none;html=1;rounded=0;exitX=1;exitY=0.5;exitDx=0;exitDy=0;entryX=0;entryY=0.5;entryDx=0;entryDy=0;" edge="1" parent="WIyWlLk6GJQsqaUBKTNV-1" source="4q6ymWTk0w80l1iQ2Jg6-6" target="WIyWlLk6GJQsqaUBKTNV-6">
          <mxGeometry width="50" height="50" relative="1" as="geometry">
            <mxPoint x="390" y="370" as="sourcePoint" />
            <mxPoint x="440" y="320" as="targetPoint" />
          </mxGeometry>
        </mxCell>
        <mxCell id="b1o6msCtsk1UACjhmxPi-1" value="&lt;u&gt;채널코드&lt;/u&gt;" style="ellipse;whiteSpace=wrap;html=1;" vertex="1" parent="WIyWlLk6GJQsqaUBKTNV-1">
          <mxGeometry x="70" y="360" width="80" height="50" as="geometry" />
        </mxCell>
        <mxCell id="b1o6msCtsk1UACjhmxPi-2" value="&lt;u&gt;채널이름&lt;/u&gt;" style="ellipse;whiteSpace=wrap;html=1;" vertex="1" parent="WIyWlLk6GJQsqaUBKTNV-1">
          <mxGeometry x="170" y="360" width="80" height="50" as="geometry" />
        </mxCell>
        <mxCell id="b1o6msCtsk1UACjhmxPi-3" value="" style="endArrow=none;html=1;rounded=0;entryX=0.5;entryY=1;entryDx=0;entryDy=0;exitX=0.5;exitY=0;exitDx=0;exitDy=0;" edge="1" parent="WIyWlLk6GJQsqaUBKTNV-1" source="b1o6msCtsk1UACjhmxPi-2" target="4q6ymWTk0w80l1iQ2Jg6-6">
          <mxGeometry width="50" height="50" relative="1" as="geometry">
            <mxPoint x="390" y="370" as="sourcePoint" />
            <mxPoint x="440" y="320" as="targetPoint" />
          </mxGeometry>
        </mxCell>
        <mxCell id="b1o6msCtsk1UACjhmxPi-4" value="" style="endArrow=none;html=1;rounded=0;exitX=0.5;exitY=0;exitDx=0;exitDy=0;entryX=0.5;entryY=1;entryDx=0;entryDy=0;" edge="1" parent="WIyWlLk6GJQsqaUBKTNV-1" source="b1o6msCtsk1UACjhmxPi-1" target="4q6ymWTk0w80l1iQ2Jg6-6">
          <mxGeometry width="50" height="50" relative="1" as="geometry">
            <mxPoint x="220" y="370" as="sourcePoint" />
            <mxPoint x="170" y="320" as="targetPoint" />
          </mxGeometry>
        </mxCell>
        <mxCell id="b1o6msCtsk1UACjhmxPi-5" value="멤버십" style="rounded=0;whiteSpace=wrap;html=1;" vertex="1" parent="WIyWlLk6GJQsqaUBKTNV-1">
          <mxGeometry x="477" y="250" width="120" height="60" as="geometry" />
        </mxCell>
        <mxCell id="b1o6msCtsk1UACjhmxPi-6" value="&lt;u&gt;멤버십코드&lt;/u&gt;" style="ellipse;whiteSpace=wrap;html=1;" vertex="1" parent="WIyWlLk6GJQsqaUBKTNV-1">
          <mxGeometry x="443" y="360" width="80" height="50" as="geometry" />
        </mxCell>
        <mxCell id="b1o6msCtsk1UACjhmxPi-7" value="&lt;u&gt;멤버십이름&lt;/u&gt;" style="ellipse;whiteSpace=wrap;html=1;" vertex="1" parent="WIyWlLk6GJQsqaUBKTNV-1">
          <mxGeometry x="543" y="360" width="80" height="50" as="geometry" />
        </mxCell>
        <mxCell id="b1o6msCtsk1UACjhmxPi-8" value="" style="endArrow=none;html=1;rounded=0;entryX=0.5;entryY=1;entryDx=0;entryDy=0;exitX=0.5;exitY=0;exitDx=0;exitDy=0;" edge="1" parent="WIyWlLk6GJQsqaUBKTNV-1" source="b1o6msCtsk1UACjhmxPi-7" target="b1o6msCtsk1UACjhmxPi-5">
          <mxGeometry width="50" height="50" relative="1" as="geometry">
            <mxPoint x="763" y="370" as="sourcePoint" />
            <mxPoint x="813" y="320" as="targetPoint" />
          </mxGeometry>
        </mxCell>
        <mxCell id="b1o6msCtsk1UACjhmxPi-9" value="" style="endArrow=none;html=1;rounded=0;exitX=0.5;exitY=0;exitDx=0;exitDy=0;entryX=0.5;entryY=1;entryDx=0;entryDy=0;" edge="1" parent="WIyWlLk6GJQsqaUBKTNV-1" source="b1o6msCtsk1UACjhmxPi-6" target="b1o6msCtsk1UACjhmxPi-5">
          <mxGeometry width="50" height="50" relative="1" as="geometry">
            <mxPoint x="593" y="370" as="sourcePoint" />
            <mxPoint x="543" y="320" as="targetPoint" />
          </mxGeometry>
        </mxCell>
        <mxCell id="b1o6msCtsk1UACjhmxPi-10" value="M" style="text;html=1;strokeColor=none;fillColor=none;align=center;verticalAlign=middle;whiteSpace=wrap;rounded=0;" vertex="1" parent="WIyWlLk6GJQsqaUBKTNV-1">
          <mxGeometry x="410" y="250" width="50" height="20" as="geometry" />
        </mxCell>
        <mxCell id="b1o6msCtsk1UACjhmxPi-11" value="" style="endArrow=none;html=1;rounded=0;exitX=1;exitY=0.5;exitDx=0;exitDy=0;" edge="1" parent="WIyWlLk6GJQsqaUBKTNV-1">
          <mxGeometry width="50" height="50" relative="1" as="geometry">
            <mxPoint x="400" y="280" as="sourcePoint" />
            <mxPoint x="480" y="280" as="targetPoint" />
          </mxGeometry>
        </mxCell>
      </root>
    </mxGraphModel>
  </diagram>
</mxfile>
